<mxfile host="app.diagrams.net" modified="2021-07-27T07:16:48.649Z" agent="5.0 (Macintosh; Intel Mac OS X 10_16_0) AppleWebKit/537.36 (KHTML, like Gecko) Chrome/84.0.4147.89 Safari/537.36" etag="xoTBubo8eYQ2Nmg0DKpd" version="14.9.2" type="github">
  <diagram id="C5RBs43oDa-KdzZeNtuy" name="Page-1">
    <mxGraphModel dx="963" dy="656" grid="1" gridSize="10" guides="1" tooltips="1" connect="1" arrows="1" fold="1" page="1" pageScale="1" pageWidth="827" pageHeight="1169" math="0" shadow="0">
      <root>
        <mxCell id="WIyWlLk6GJQsqaUBKTNV-0" />
        <mxCell id="WIyWlLk6GJQsqaUBKTNV-1" parent="WIyWlLk6GJQsqaUBKTNV-0" />
        <mxCell id="Y_a3edjQv3btocFPgqA5-0" style="edgeStyle=orthogonalEdgeStyle;rounded=0;orthogonalLoop=1;jettySize=auto;html=1;exitX=1;exitY=0.5;exitDx=0;exitDy=0;" edge="1" parent="WIyWlLk6GJQsqaUBKTNV-1" source="WIyWlLk6GJQsqaUBKTNV-3">
          <mxGeometry relative="1" as="geometry">
            <mxPoint x="460" y="200" as="targetPoint" />
          </mxGeometry>
        </mxCell>
        <mxCell id="Y_a3edjQv3btocFPgqA5-8" style="edgeStyle=orthogonalEdgeStyle;rounded=0;orthogonalLoop=1;jettySize=auto;html=1;exitX=0.5;exitY=0;exitDx=0;exitDy=0;" edge="1" parent="WIyWlLk6GJQsqaUBKTNV-1" source="WIyWlLk6GJQsqaUBKTNV-3">
          <mxGeometry relative="1" as="geometry">
            <mxPoint x="300" y="110" as="targetPoint" />
          </mxGeometry>
        </mxCell>
        <mxCell id="WIyWlLk6GJQsqaUBKTNV-3" value="server" style="rounded=1;whiteSpace=wrap;html=1;fontSize=12;glass=0;strokeWidth=1;shadow=0;" parent="WIyWlLk6GJQsqaUBKTNV-1" vertex="1">
          <mxGeometry x="240" y="180" width="120" height="40" as="geometry" />
        </mxCell>
        <mxCell id="Y_a3edjQv3btocFPgqA5-4" style="edgeStyle=orthogonalEdgeStyle;rounded=0;orthogonalLoop=1;jettySize=auto;html=1;exitX=1;exitY=0.5;exitDx=0;exitDy=0;" edge="1" parent="WIyWlLk6GJQsqaUBKTNV-1" source="Y_a3edjQv3btocFPgqA5-2" target="Y_a3edjQv3btocFPgqA5-3">
          <mxGeometry relative="1" as="geometry" />
        </mxCell>
        <mxCell id="Y_a3edjQv3btocFPgqA5-2" value="flink_任务累计历史预估值" style="rounded=1;whiteSpace=wrap;html=1;fontSize=12;glass=0;strokeWidth=1;shadow=0;" vertex="1" parent="WIyWlLk6GJQsqaUBKTNV-1">
          <mxGeometry x="460" y="180" width="120" height="40" as="geometry" />
        </mxCell>
        <mxCell id="Y_a3edjQv3btocFPgqA5-6" style="edgeStyle=orthogonalEdgeStyle;rounded=0;orthogonalLoop=1;jettySize=auto;html=1;exitX=0.5;exitY=1;exitDx=0;exitDy=0;entryX=1;entryY=0.5;entryDx=0;entryDy=0;" edge="1" parent="WIyWlLk6GJQsqaUBKTNV-1" source="Y_a3edjQv3btocFPgqA5-3" target="Y_a3edjQv3btocFPgqA5-5">
          <mxGeometry relative="1" as="geometry" />
        </mxCell>
        <mxCell id="Y_a3edjQv3btocFPgqA5-3" value="redis" style="rounded=1;whiteSpace=wrap;html=1;fontSize=12;glass=0;strokeWidth=1;shadow=0;" vertex="1" parent="WIyWlLk6GJQsqaUBKTNV-1">
          <mxGeometry x="680" y="180" width="120" height="40" as="geometry" />
        </mxCell>
        <mxCell id="Y_a3edjQv3btocFPgqA5-12" style="edgeStyle=orthogonalEdgeStyle;rounded=0;orthogonalLoop=1;jettySize=auto;html=1;exitX=0;exitY=0.5;exitDx=0;exitDy=0;entryX=0.75;entryY=1;entryDx=0;entryDy=0;startArrow=none;startFill=0;endArrow=classic;endFill=1;" edge="1" parent="WIyWlLk6GJQsqaUBKTNV-1" source="Y_a3edjQv3btocFPgqA5-5" target="WIyWlLk6GJQsqaUBKTNV-3">
          <mxGeometry relative="1" as="geometry" />
        </mxCell>
        <mxCell id="Y_a3edjQv3btocFPgqA5-5" value="&lt;span style=&quot;font-size: 15px ; font-family: &amp;#34;arial&amp;#34; , &amp;#34;microsoft yahei&amp;#34; , , , &amp;#34;heiti&amp;#34; , sans-serif , &amp;#34;simsun&amp;#34; , , serif ; color: rgb(51 , 51 , 51) ; background-color: transparent ; vertical-align: baseline&quot; id=&quot;clipboard-source-id-prefix-%865efe6b3e4-e6cf-0a76-2be0-a56ebb49515c&quot;&gt;prometheus&lt;/span&gt;" style="rounded=1;whiteSpace=wrap;html=1;fontSize=12;glass=0;strokeWidth=1;shadow=0;" vertex="1" parent="WIyWlLk6GJQsqaUBKTNV-1">
          <mxGeometry x="460" y="260" width="120" height="40" as="geometry" />
        </mxCell>
        <mxCell id="Y_a3edjQv3btocFPgqA5-9" value="request" style="rounded=1;whiteSpace=wrap;html=1;fontSize=12;glass=0;strokeWidth=1;shadow=0;" vertex="1" parent="WIyWlLk6GJQsqaUBKTNV-1">
          <mxGeometry x="240" y="70" width="120" height="40" as="geometry" />
        </mxCell>
        <mxCell id="Y_a3edjQv3btocFPgqA5-10" style="edgeStyle=orthogonalEdgeStyle;rounded=0;orthogonalLoop=1;jettySize=auto;html=1;exitX=0.5;exitY=0;exitDx=0;exitDy=0;startArrow=classic;startFill=1;endArrow=none;endFill=0;" edge="1" parent="WIyWlLk6GJQsqaUBKTNV-1">
          <mxGeometry relative="1" as="geometry">
            <mxPoint x="316" y="110" as="targetPoint" />
            <mxPoint x="316" y="180" as="sourcePoint" />
            <Array as="points">
              <mxPoint x="316" y="142" />
              <mxPoint x="316" y="142" />
            </Array>
          </mxGeometry>
        </mxCell>
        <mxCell id="Y_a3edjQv3btocFPgqA5-13" style="edgeStyle=orthogonalEdgeStyle;rounded=0;orthogonalLoop=1;jettySize=auto;html=1;exitX=0.5;exitY=0;exitDx=0;exitDy=0;entryX=0.5;entryY=1;entryDx=0;entryDy=0;startArrow=none;startFill=0;endArrow=classic;endFill=1;" edge="1" parent="WIyWlLk6GJQsqaUBKTNV-1" source="Y_a3edjQv3btocFPgqA5-11" target="WIyWlLk6GJQsqaUBKTNV-3">
          <mxGeometry relative="1" as="geometry" />
        </mxCell>
        <mxCell id="Y_a3edjQv3btocFPgqA5-11" value="&lt;font color=&quot;#333333&quot;&gt;&lt;span style=&quot;font-size: 15px&quot;&gt;model&lt;/span&gt;&lt;/font&gt;" style="rounded=1;whiteSpace=wrap;html=1;fontSize=12;glass=0;strokeWidth=1;shadow=0;" vertex="1" parent="WIyWlLk6GJQsqaUBKTNV-1">
          <mxGeometry x="240" y="320" width="120" height="40" as="geometry" />
        </mxCell>
      </root>
    </mxGraphModel>
  </diagram>
</mxfile>
